{"title":"Trumbo 2015 DVDScr XVID AC3 HQ Hive-CM8","uid":13099784,"size":1838936151,"categoryP":"video","categoryS":"movies","magnet":"?xt=urn:btih:4addf43fb27a012ec489f3909282b5d05de81373&amp;dn=Trumbo+2015+DVDScr+XVID+AC3+HQ+Hive-CM8&amp;tr=udp%3A%2F%2Ftracker.leechers-paradise.org%3A6969&amp;tr=udp%3A%2F%2Fzer0day.ch%3A1337&amp;tr=udp%3A%2F%2Fopen.demonii.com%3A1337&amp;tr=udp%3A%2F%2Ftracker.coppersurfer.tk%3A6969&amp;tr=udp%3A%2F%2Fexodus.desync.com%3A6969","seeders":0,"leechers":0,"uploader":"makintos13","files":3,"time":1451213373,"description":"Trumbo.2015.DVDScr.XVID.AC3.HQ.Hive-CM8\r\n\r\nScreens:\r\n \nhttp://imgmak.com/KuJ\r\n \nhttp://imgmak.com/KuW\r\n \nhttp://imgmak.com/Kud\r\n \nhttp://imgmak.com/Kus\r\n \nhttp://imgmak.com/Ku4\r\n\r\n \nhttp://www.imdb.com/title/tt3203606/\r\n\r\n\r\nIn 1947, Dalton Trumbo was Hollywood's top screenwriter, until he and other artists were jailed and blacklisted for their political beliefs.\r\n\r\nDirector: Jay Roach\r\nWriters: John McNamara, Bruce Cook (book)\r\nStars: Bryan Cranston, Diane Lane, Helen Mirren\r\nGenres: Biography | Drama\r\nCountry: USA\r\nLanguage: English\r\n\r\n\r\nTrumbo.2015.DVDScr.XVID.AC3.HQ.Hive-CM8\r\n\r\nThx Hive\r\n\r\nCM8 Doing It Right The First Time\r\n\r\nSource: DVD-Screener Big THX m8\r\n\r\nNotes:\r\nDVDScreener 13\r\n\r\nEncode:\r\nquality was nice on this.\r\nAll digital watermarks are removed.\r\nFixed brightness,contrast and rgb, and added sharpness.\r\n\r\ngot very nice\r\nenjoy\r\n\r\nVideo: 720x384 @bitrate 1700 2pass\r\nAudio: English AC3 2.0 Stereo\r\nSample: yes included\r\n\r\nps: i forgot to mention, plz support the producers and go to the cinema and watch them on a big screen too\r\nthx\r\n\r\n\r\n \nhttp://www.imdb.com/title/tt3203606/\r\n\r\n\r\nGeneral\r\nComplete name : Trumbo.2015.DVDScr.XVID.AC3.HQ.Hive-CM8.avi\r\nFormat : AVI\r\nFormat/Info : Audio Video Interleave\r\nFile size : 1.71 GiB\r\nDuration : 2h 4mn\r\nOverall bit rate : 1 968 Kbps\r\nWriting application : Nandub v1.0rc2\r\nWriting library : Nandub build 1853/release\r\n\r\nVideo\r\nID : 0\r\nFormat : MPEG-4 Visual\r\nFormat profile : Advanced   \r\nFormat settings, BVOP : 2\r\nFormat settings, QPel : Yes\r\nFormat settings, GMC : No warppoints\r\nFormat settings, Matrix : Default (H.263)\r\nMuxing mode : Packed bitstream\r\nCodec ID : XVID\r\nCodec ID/Hint : XviD\r\nDuration : 2h 4mn\r\nBit rate : 1 700 Kbps\r\nWidth : 720 pixels\r\nHeight : 384 pixels\r\nDisplay aspect ratio : 1.85:1\r\nFrame rate : 29.970 fps\r\nColor space : YUV\r\nChroma subsampling : 4:2:0\r\nBit depth : 8 bits\r\nScan type : Progressive\r\nCompression mode : Lossy\r\nBits/(Pixel*Frame) : 0.205\r\nStream size : 1.47 GiB (86%)\r\nWriting library : XviD 1.2.1 (UTC 2008-12-04)\r\n\r\nAudio\r\nID : 1\r\nFormat : AC-3\r\nFormat/Info : Audio Coding 3\r\nMode extension : CM (complete main)\r\nFormat settings, Endianness : Big\r\nCodec ID : 2000\r\nDuration : 2h 4mn\r\nBit rate mode : Constant\r\nBit rate : 256 Kbps\r\nChannel(s) : 2 channels\r\nChannel positions : Front: L R\r\nSampling rate : 48.0 KHz\r\nBit depth : 16 bits\r\nCompression mode : Lossy\r\nStream size : 227 MiB (13%)\r\nAlignment : Split accross interleaves\r\nInterleave, duration : 33 ms (1.00 video frame)\r\nInterleave, preload duration : 500 ms","torrent":{"xt":"urn:btih:4addf43fb27a012ec489f3909282b5d05de81373","amp;dn":"Trumbo+2015+DVDScr+XVID+AC3+HQ+Hive-CM8","amp;tr":["udp%3A%2F%2Ftracker.leechers-paradise.org%3A6969","udp%3A%2F%2Fzer0day.ch%3A1337","udp%3A%2F%2Fopen.demonii.com%3A1337","udp%3A%2F%2Ftracker.coppersurfer.tk%3A6969","udp%3A%2F%2Fexodus.desync.com%3A6969"],"infoHash":"4addf43fb27a012ec489f3909282b5d05de81373","infoHashBuffer":{"type":"Buffer","data":[74,221,244,63,178,122,1,46,196,137,243,144,146,130,181,208,93,232,19,115]},"announce":[],"urlList":[]}}